<svg xmlns="http://www.w3.org/2000/svg"  viewBox="0 0 100 100" width="100px" height="100px" baseProfile="basic"><path fill="#c7ede6" d="M87.2,56.7c1.1-2.2,1.8-4.6,1.8-7.2c0-6.6-4.2-12.3-10-14.5l0,0c0-11.6-9.4-21-21-21 c-9.8,0-18,6.7-20.3,15.8c-1.5-0.5-3-0.8-4.7-0.8c-7.7,0-14,5.8-14.9,13.3C12.9,43.4,9,48,9,53.5C9,59.9,14.1,65,20.5,65 c0.2,0,0.4,0,0.5,0c0,0.2,0,0.3,0,0.5C21,76.8,30.2,86,41.5,86c6.4,0,12.2-3,15.9-7.6c2.2,2.2,5.2,3.6,8.6,3.6 c4.7,0,8.7-2.7,10.7-6.5c1.1,0.3,2.2,0.5,3.3,0.5c6.1,0,11-4.9,11-11C91,61.7,89.5,58.7,87.2,56.7z"/><path fill="#fdfcef" d="M79.9,60.5c0,0,3.6,0,6.1,0s4.5-2,4.5-4.5c0-2.3-1.8-4.2-4.1-4.5c0-0.2,0.1-0.4,0.1-0.5 c0-2.5-2-4.5-4.5-4.5c-1.4,0-2.7,0.7-3.5,1.7c-0.1-2.6-2.3-4.7-5-4.7c-2.8,0-5,2.2-5,5c0,0.4,0.1,0.9,0.2,1.3 C68,49,67.1,48.5,66,48.5c-1.8,0-3.2,1.3-3.5,3.1c-0.2,0-0.4-0.1-0.5-0.1c-2.5,0-4.5,2-4.5,4.5s2,4.5,4.5,4.5s9.5,0,9.5,0h5.4V61 h3V60.5z"/><path fill="#472b29" d="M73.5,43c-3,0-5.5,2.5-5.5,5.5l0,0c-0.6-0.4-1.3-0.5-2-0.5c-1.8,0-3.4,1.3-3.9,3H62 c-2.8,0-5,2.2-5,5s2.2,5,5,5h14.9c0.3,0,0.5-0.2,0.5-0.5S77.2,60,76.9,60H62c-2.2,0-4-1.8-4-4s1.8-4,4-4c0.1,0,0.2,0,0.3,0h0.1 c0,0,0,0,0.1,0c0.2,0,0.5-0.2,0.5-0.4c0.2-1.5,1.5-2.6,3-2.6c0.9,0,1.7,0.4,2.3,1.1c0.1,0.1,0.2,0.2,0.4,0.2c0.1,0,0.2,0,0.2-0.1 c0.2-0.1,0.3-0.3,0.3-0.6c-0.1-0.4-0.2-0.8-0.2-1.2c0-2.5,2-4.5,4.5-4.5c2.4,0,4.3,1.9,4.5,4.3c0,0.2,0.2,0.4,0.3,0.5 c0.1,0,0.1,0,0.2,0c0.2,0,0.3-0.1,0.4-0.2c0.8-1,1.9-1.5,3.1-1.5c2.2,0,4,1.8,4,4c0,0.1,0,0.2,0,0.3v0.1c0,0.1,0,0.3,0.1,0.4 s0.2,0.2,0.3,0.2c2.1,0.2,3.6,1.9,3.6,4c0,2.2-1.8,4-4,4h-6.1c-0.3,0-0.5,0.2-0.5,0.5s0.2,0.5,0.5,0.5H86c2.8,0,5-2.2,5-5 c0-2.4-1.7-4.4-4-4.9V51c0-2.8-2.2-5-5-5c-1.2,0-2.3,0.4-3.2,1.2C78.2,44.8,76.1,43,73.5,43L73.5,43z"/><path fill="#472b29" d="M72,50c-1.4,0-2.6,1-2.9,2.3c-0.4-0.2-0.8-0.3-1.2-0.3c-1.2,0-2.2,0.9-2.4,2.1 c-0.2,0-0.4-0.1-0.6-0.1c-1.5,0-2.8,1.2-2.9,2.7c0,0.1,0.1,0.3,0.2,0.3l0,0c0.1,0,0.2-0.1,0.2-0.2c0.1-1.3,1.2-2.3,2.4-2.3 c0.2,0,0.5,0,0.7,0.1c0,0,0,0,0.1,0s0.1,0,0.2-0.1c0.1,0,0.1-0.1,0.1-0.2c0-1,0.8-1.9,1.9-1.9c0.4,0,0.9,0.2,1.2,0.5 c0,0,0.1,0.1,0.2,0.1h0.1c0.1,0,0.1-0.1,0.2-0.2c0.1-1.3,1.2-2.3,2.5-2.3c0.2,0,0.4,0,0.7,0.1c0,0,0,0,0.1,0s0.2-0.1,0.2-0.2 c0-0.1,0-0.3-0.2-0.3C72.5,50,72.3,50,72,50L72,50z"/><path fill="#472b29" d="M85.9,51.5c-1.3,0-2.5,0.9-2.9,2.2c0,0.1,0,0.3,0.2,0.3c0,0,0,0,0.1,0s0.2-0.1,0.2-0.2 c0.3-1.1,1.3-1.8,2.4-1.8c0.1,0,0.2,0,0.3,0l0,0c0.1,0,0.2-0.1,0.2-0.2c0-0.1-0.1-0.3-0.2-0.3C86.2,51.5,86,51.5,85.9,51.5 L85.9,51.5z"/><path fill="#fff" d="M15.4,51H5.5C5.2,51,5,50.8,5,50.5S5.2,50,5.5,50h9.9c0.3,0,0.5,0.2,0.5,0.5S15.7,51,15.4,51z"/><path fill="#fff" d="M18.5,51h-1c-0.3,0-0.5-0.2-0.5-0.5s0.2-0.5,0.5-0.5h1c0.3,0,0.5,0.2,0.5,0.5S18.8,51,18.5,51z"/><path fill="#fff" d="M23.5,53h-9c-0.3,0-0.5-0.2-0.5-0.5s0.2-0.5,0.5-0.5h9c0.3,0,0.5,0.2,0.5,0.5S23.8,53,23.5,53z"/><path fill="#fff" d="M12.5,53h-1c-0.3,0-0.5-0.2-0.5-0.5s0.2-0.5,0.5-0.5h1c0.3,0,0.5,0.2,0.5,0.5S12.8,53,12.5,53z"/><path fill="#fff" d="M9.5,53h-2C7.2,53,7,52.8,7,52.5S7.2,52,7.5,52h2c0.3,0,0.5,0.2,0.5,0.5S9.8,53,9.5,53z"/><path fill="#fff" d="M15.5,55h-2c-0.3,0-0.5-0.2-0.5-0.5s0.2-0.5,0.5-0.5h2c0.3,0,0.5,0.2,0.5,0.5S15.8,55,15.5,55z"/><path fill="#fff" d="M18.5,46c-0.2,0-0.8,0-1,0c-0.3,0-0.5,0.2-0.5,0.5s0.2,0.5,0.5,0.5c0.2,0,0.8,0,1,0 c0.3,0,0.5-0.2,0.5-0.5S18.8,46,18.5,46z"/><path fill="#fff" d="M18.5,48c-0.2,0-4.8,0-5,0c-0.3,0-0.5,0.2-0.5,0.5s0.2,0.5,0.5,0.5c0.2,0,4.8,0,5,0 c0.3,0,0.5-0.2,0.5-0.5S18.8,48,18.5,48z"/><path fill="#fff" d="M23.5,50c-0.2,0-2.8,0-3,0c-0.3,0-0.5,0.2-0.5,0.5s0.2,0.5,0.5,0.5c0.2,0,2.8,0,3,0 c0.3,0,0.5-0.2,0.5-0.5S23.8,50,23.5,50z"/><g><path fill="#fff" d="M72.5,24h-10c-0.3,0-0.5-0.2-0.5-0.5s0.2-0.5,0.5-0.5h10c0.3,0,0.5,0.2,0.5,0.5S72.8,24,72.5,24z"/><path fill="#fff" d="M76.5,24h-2c-0.3,0-0.5-0.2-0.5-0.5s0.2-0.5,0.5-0.5h2c0.3,0,0.5,0.2,0.5,0.5S76.8,24,76.5,24z"/><path fill="#fff" d="M81.5,26h-10c-0.3,0-0.5-0.2-0.5-0.5s0.2-0.5,0.5-0.5h10c0.3,0,0.5,0.2,0.5,0.5S81.8,26,81.5,26z"/><path fill="#fff" d="M69.5,26h-1c-0.3,0-0.5-0.2-0.5-0.5s0.2-0.5,0.5-0.5h1c0.3,0,0.5,0.2,0.5,0.5S69.8,26,69.5,26z"/><path fill="#fff" d="M66.4,26h-1.9c-0.3,0-0.5-0.2-0.5-0.5s0.2-0.5,0.5-0.5h1.9c0.3,0,0.5,0.2,0.5,0.5S66.7,26,66.4,26z"/><path fill="#fff" d="M75.5,22h-5c-0.3,0-0.5-0.2-0.5-0.5s0.2-0.5,0.5-0.5h5c0.3,0,0.5,0.2,0.5,0.5S75.8,22,75.5,22z"/><path fill="#fff" d="M72.5,28h-2c-0.3,0-0.5-0.2-0.5-0.5s0.2-0.5,0.5-0.5h2c0.3,0,0.5,0.2,0.5,0.5S72.8,28,72.5,28z"/></g><g><circle cx="51" cy="50" r="23" fill="#78a2d2"/><path fill="#472b29" d="M61.299,32.783c-0.043,0-0.087-0.011-0.127-0.035c-0.433-0.255-0.875-0.494-1.314-0.711 c-0.124-0.062-0.175-0.212-0.114-0.335c0.062-0.124,0.214-0.175,0.335-0.114c0.451,0.223,0.904,0.468,1.348,0.73 c0.119,0.069,0.158,0.223,0.088,0.342C61.468,32.739,61.384,32.783,61.299,32.783z"/><path fill="#472b29" d="M63.295,34.129c-0.054,0-0.106-0.017-0.152-0.052c-0.215-0.165-0.435-0.325-0.656-0.481 c-0.113-0.079-0.141-0.235-0.061-0.348c0.08-0.113,0.237-0.141,0.348-0.061c0.228,0.16,0.453,0.324,0.674,0.493 c0.109,0.084,0.13,0.241,0.046,0.351C63.444,34.096,63.37,34.129,63.295,34.129z"/><path fill="#472b29" d="M50.986,70.557c-11.327,0-20.543-9.216-20.543-20.543s9.216-20.543,20.543-20.543 c2.43,0,4.81,0.421,7.071,1.251c0.13,0.047,0.196,0.19,0.148,0.32c-0.047,0.13-0.19,0.198-0.32,0.148 c-2.207-0.81-4.528-1.22-6.899-1.22c-11.052,0-20.043,8.991-20.043,20.043s8.991,20.043,20.043,20.043s20.043-8.991,20.043-20.043 c0-5.639-2.396-11.047-6.571-14.84c-0.103-0.094-0.11-0.251-0.017-0.354c0.092-0.102,0.25-0.109,0.353-0.018 c4.28,3.888,6.735,9.432,6.735,15.211C71.529,61.341,62.313,70.557,50.986,70.557z"/><path fill="#472b29" d="M51,73.987c-13.227,0-23.987-10.761-23.987-23.987S37.773,26.013,51,26.013S74.987,36.773,74.987,50 S64.227,73.987,51,73.987z M51,27.413c-12.454,0-22.587,10.133-22.587,22.587S38.546,72.587,51,72.587S73.587,62.454,73.587,50 S63.454,27.413,51,27.413z"/></g><g><path fill="#fdfcee" d="M53.2,58.3c0,0.9,0.9,1.4,2.9,1.4v1.8H45.9v-1.8c1.9,0,2.8-0.5,2.8-1.4v-9.4c0-0.9-0.9-1.4-2.8-1.4 v-1.8h7.3C53.2,45.8,53.2,58.3,53.2,58.3z M53.6,40.6c0,0.7-0.3,1.3-0.8,1.9c-0.5,0.5-1.2,0.8-2,0.8c-0.4,0-0.8-0.1-1.1-0.2 c-0.3-0.1-0.6-0.3-0.9-0.6c-0.3-0.2-0.5-0.5-0.6-0.8C48,41.4,48,41,48,40.7c0-0.7,0.3-1.4,0.8-1.9c0.6-0.5,1.2-0.8,2-0.8 s1.4,0.3,2,0.8C53.4,39.2,53.6,39.8,53.6,40.6z"/><path fill="#472b29" d="M56.6,62H45.4v-2.8h0.5c1.1,0,2.3-0.2,2.3-0.9v-9.4c0-0.6-0.8-0.9-2.3-0.9h-0.5v-2.8h8.3v13.1 c0,0.2,0,0.3,0.1,0.4c0.2,0.2,0.7,0.5,2.2,0.5h0.5V62H56.6z M46.4,61h9.2v-0.8c-1.2-0.1-2-0.3-2.5-0.8c-0.3-0.3-0.4-0.7-0.4-1.1 v-12h-6.3V47c1.9,0.1,2.8,0.7,2.8,1.9v9.4c0,1.2-1,1.8-2.8,1.9V61z M50.8,43.7c-0.5,0-0.9-0.1-1.3-0.3c-0.4-0.2-0.7-0.4-1-0.7 s-0.5-0.6-0.7-1s-0.3-0.8-0.3-1.3c0-0.9,0.3-1.6,1-2.2c0.7-0.6,1.4-0.9,2.3-0.9c0.9,0,1.7,0.3,2.3,0.9c0.7,0.6,1,1.4,1,2.2 c0,0.9-0.3,1.6-1,2.2C52.5,43.4,51.8,43.7,50.8,43.7z M50.8,38.4c-0.6,0-1.2,0.2-1.7,0.6c-0.5,0.4-0.7,0.9-0.7,1.5 c0,0.3,0.1,0.6,0.2,0.8c0.1,0.3,0.3,0.5,0.5,0.7s0.5,0.4,0.7,0.5c0.3,0.1,0.6,0.2,0.9,0.2c0.7,0,1.2-0.2,1.6-0.6 c0.4-0.4,0.7-0.9,0.7-1.5s-0.2-1.1-0.7-1.5C52,38.6,51.5,38.4,50.8,38.4z"/></g><g><path fill="#fdfcef" d="M38.5,73.5c0,0,1.6,0,3.5,0s3.5-1.6,3.5-3.5c0-1.8-1.3-3.2-3.1-3.5c0-0.2,0.1-0.4,0.1-0.5 c0-1.9-1.6-3.5-3.5-3.5c-1,0-2,0.5-2.6,1.2c-0.4-1.8-2-3.2-3.9-3.2c-2.2,0-4,1.8-4,4c0,0.2,0,0.4,0.1,0.6c-0.4-0.3-1-0.6-1.6-0.6 c-1.2,0-2.2,0.9-2.5,2.1c-0.2,0-0.4-0.1-0.5-0.1c-1.9,0-3.5,1.6-3.5,3.5s1.6,3.5,3.5,3.5s7.5,0,7.5,0V74h7V73.5z"/><path fill="#472b29" d="M40.3,69c-0.1,0-0.3-0.1-0.3-0.3c0-1.2,1-2.2,2.2-2.2c0,0,0.7,0,1.2,0.1c0.1,0,0.2,0.2,0.2,0.3 c0,0.1-0.2,0.2-0.3,0.2C42.9,67,42.2,67,42.2,67c-0.9,0-1.7,0.8-1.7,1.7C40.5,68.9,40.4,69,40.3,69z"/><circle cx="33.5" cy="73.5" r=".5" fill="#472b29"/><path fill="#472b29" d="M42,74h-3.5c-0.3,0-0.5-0.2-0.5-0.5s0.2-0.5,0.5-0.5H42c1.7,0,3-1.3,3-3c0-1.5-1.1-2.8-2.6-3 c-0.1,0-0.3-0.1-0.3-0.2S42,66.6,42,66.4c0-0.2,0-0.3,0-0.5c0-1.7-1.3-3-3-3c-0.8,0-1.6,0.4-2.2,1c-0.1,0.1-0.3,0.2-0.5,0.1 c-0.2,0-0.3-0.2-0.4-0.4c-0.3-1.6-1.8-2.8-3.4-2.8c-1.9,0-3.5,1.6-3.5,3.5c0,0.1,0,0.3,0,0.4c0,0.2-0.1,0.4-0.2,0.5 s-0.4,0.1-0.6,0c-0.3,0-0.8-0.2-1.2-0.2c-1,0-1.8,0.7-2,1.6c0,0.3-0.3,0.4-0.6,0.4c-0.2,0-0.3,0-0.5,0c-1.7,0-3,1.3-3,3s1.3,3,3,3 h7.5c0.3,0,0.5,0.2,0.5,0.5S31.8,74,31.5,74H24c-2.2,0-4-1.8-4-4s1.8-4,4-4c0.1,0,0.1,0,0.2,0c0.4-1.2,1.5-2,2.8-2 c0.3,0,0.7,0.1,1,0.2c0.2-2.3,2.1-4.2,4.5-4.2c1.8,0,3.5,1.1,4.2,2.8c0.7-0.5,1.5-0.8,2.3-0.8c2.2,0,4,1.8,4,4v0.1 c1.7,0.4,3,2,3,3.9C46,72.2,44.2,74,42,74z"/><path fill="#472b29" d="M36.5,73c-0.2,0-0.8,0-1,0c-0.3,0-0.5,0.2-0.5,0.5s0.2,0.5,0.5,0.5c0.2,0,0.8,0,1,0 c0.3,0,0.5-0.2,0.5-0.5S36.8,73,36.5,73z"/></g></svg>